<?xml version="1.0" encoding="UTF-8"?>
<svg id="Layer_1" data-name="Layer 1" xmlns="http://www.w3.org/2000/svg" xmlns:xlink="http://www.w3.org/1999/xlink" viewBox="0 0 895.61 404.36">
  <defs>
    <style>
      .cls-1 {
        opacity: .5;
      }

      .cls-1, .cls-2, .cls-3, .cls-4 {
        fill: none;
      }

      .cls-5 {
        fill: url(#linear-gradient);
        opacity: .7;
      }

      .cls-2 {
        stroke: url(#linear-gradient-2);
      }

      .cls-2, .cls-3, .cls-4 {
        stroke-miterlimit: 8;
      }

      .cls-6 {
        fill: #00c1d5;
      }

      .cls-7 {
        fill: #0091da;
      }

      .cls-8 {
        fill: #78be20;
      }

      .cls-9 {
        fill: #61717d;
      }

      .cls-3 {
        isolation: isolate;
        stroke: #78be20;
      }

      .cls-4 {
        stroke: #fff;
      }
    </style>
    <linearGradient id="linear-gradient" x1="62.61" y1="188.35" x2="850.86" y2="188.35" gradientUnits="userSpaceOnUse">
      <stop offset="0" stop-color="#78be20"/>
      <stop offset=".02" stop-color="#74be25"/>
      <stop offset=".2" stop-color="#51be5a"/>
      <stop offset=".39" stop-color="#33bf86"/>
      <stop offset=".56" stop-color="#1dc0a8"/>
      <stop offset=".72" stop-color="#0dc0c1"/>
      <stop offset=".88" stop-color="#03c0cf"/>
      <stop offset="1" stop-color="#00c1d5"/>
    </linearGradient>
    <linearGradient id="linear-gradient-2" x1="6.83" y1="101.07" x2="888.84" y2="101.07" gradientUnits="userSpaceOnUse">
      <stop offset="0" stop-color="#78be20"/>
      <stop offset="1" stop-color="#00c1d5"/>
    </linearGradient>
  </defs>
  <g id="Layer_2" data-name="Layer 2">
    <g id="Layer_1-2" data-name="Layer 1-2">
      <g>
        <path class="cls-9" d="M115.68,57.05h4.27c1.22-.02,2.43,.25,3.53,.8,2.98,1.46,4.21,5.05,2.75,8.03-.59,1.2-1.56,2.17-2.75,2.75-1.1,.54-2.31,.81-3.53,.79h-4.27v-12.37Zm4.38,10.71c.87,.01,1.73-.18,2.51-.57,.71-.37,1.31-.92,1.73-1.61,.42-.71,.63-1.52,.62-2.35,.01-.82-.2-1.63-.62-2.34-.41-.69-1.01-1.24-1.73-1.6-.78-.4-1.64-.6-2.51-.58h-2.56v9.05h2.56Z"/>
        <path class="cls-9" d="M129.3,58.24c-.21-.19-.32-.47-.32-.75,0-.28,.11-.56,.32-.75,.2-.21,.48-.32,.77-.32,.58,.02,1.05,.49,1.06,1.07,0,.28-.11,.56-.32,.75-.19,.21-.46,.33-.74,.33-.29,0-.57-.11-.77-.33Zm-.13,1.87h1.78v9.31h-1.78v-9.31Z"/>
        <path class="cls-9" d="M134.91,69.28c-.68-.22-1.31-.56-1.87-1l.81-1.22c.48,.36,1.01,.66,1.58,.87,.5,.19,1.04,.29,1.58,.3,.47,.02,.93-.1,1.33-.35,.32-.19,.51-.54,.49-.91,.02-.37-.18-.72-.52-.89-.52-.27-1.07-.47-1.64-.61-.88-.21-1.71-.56-2.46-1.06-.5-.4-.77-1.02-.74-1.66-.01-.78,.34-1.51,.94-2,.7-.53,1.56-.81,2.44-.77,.61,0,1.21,.1,1.78,.29,.59,.18,1.15,.45,1.66,.79l-.74,1.26c-.8-.55-1.73-.86-2.7-.9-.43-.02-.85,.09-1.21,.31-.31,.19-.49,.52-.48,.88-.01,.21,.07,.42,.22,.57,.18,.18,.4,.31,.64,.39,.29,.11,.74,.27,1.35,.46,.56,.16,1.11,.36,1.65,.58,.42,.18,.79,.46,1.07,.82,.3,.41,.45,.9,.43,1.41,.03,.82-.35,1.6-1,2.09-.73,.53-1.61,.79-2.51,.74-.72-.01-1.43-.14-2.1-.39Z"/>
        <path class="cls-9" d="M144.46,68.97c-.74-.43-1.36-1.05-1.8-1.79-.45-.73-.68-1.57-.68-2.42,0-.85,.23-1.69,.68-2.41,.44-.74,1.06-1.35,1.8-1.79,.74-.43,1.58-.66,2.44-.66,.64,0,1.27,.12,1.86,.38,.58,.25,1.12,.61,1.57,1.06l-1.2,1.11c-.28-.31-.62-.55-1-.73-.89-.42-1.93-.35-2.76,.18-.99,.62-1.58,1.7-1.57,2.86-.03,1.17,.56,2.28,1.55,2.91,.84,.53,1.89,.6,2.79,.17,.38-.19,.72-.45,1-.77l1.21,1.1c-.46,.46-1,.84-1.6,1.1-.59,.26-1.24,.4-1.89,.4-.85-.01-1.68-.26-2.4-.7Z"/>
        <path class="cls-9" d="M153.94,68.98c-.74-.43-1.36-1.04-1.79-1.78-.44-.74-.67-1.58-.67-2.44,0-.86,.23-1.7,.67-2.43,.43-.74,1.05-1.35,1.79-1.78,1.51-.87,3.37-.87,4.88,0,.74,.43,1.36,1.04,1.79,1.78,.44,.73,.67,1.57,.67,2.43,0,.86-.23,1.7-.67,2.44-.43,.74-1.05,1.35-1.79,1.78-1.51,.88-3.37,.88-4.88,0Zm4-1.34c.47-.3,.86-.72,1.13-1.22,.28-.51,.42-1.08,.42-1.66,0-.58-.14-1.16-.42-1.67-.27-.49-.65-.91-1.13-1.2-.96-.58-2.16-.58-3.12,0-.48,.29-.86,.71-1.13,1.2-.28,.51-.42,1.09-.42,1.67,0,.58,.14,1.15,.42,1.66,.26,.51,.65,.94,1.13,1.25,.95,.6,2.17,.6,3.12,0v-.03Z"/>
        <path class="cls-9" d="M162.25,60.11h1.91l2.85,7.24,2.85-7.24h1.92l-3.92,9.31h-1.67l-3.94-9.31Z"/>
        <path class="cls-9" d="M179.07,67.85c.45-.16,.87-.41,1.21-.75l1,1.1c-.47,.46-1.04,.8-1.67,1-.67,.25-1.38,.39-2.09,.4-1.71,0-3.3-.9-4.15-2.39-.44-.76-.67-1.63-.66-2.51-.01-.87,.21-1.72,.63-2.48,.41-.72,.99-1.31,1.7-1.73,.71-.42,1.52-.64,2.35-.63,.85-.02,1.7,.21,2.42,.66,.69,.46,1.23,1.12,1.55,1.89,.37,.91,.55,1.89,.53,2.88h-7.38c.08,.78,.43,1.51,1,2.05,.54,.51,1.26,.79,2,.78,.53,.01,1.06-.08,1.56-.27Zm-3.53-5.76c-.54,.51-.9,1.19-1,1.93h5.69c-.06-.71-.36-1.39-.85-1.91-.5-.5-1.18-.77-1.88-.74-.72-.02-1.42,.24-1.96,.72Z"/>
        <path class="cls-9" d="M187.13,60.45c.64-.38,1.38-.57,2.12-.55v1.55c-.62-.01-1.23,.11-1.8,.37-.5,.23-.93,.6-1.23,1.07-.29,.48-.44,1.02-.43,1.58v5h-1.78v-9.36h1.78v1.82c.29-.62,.75-1.13,1.34-1.48Z"/>
        <path class="cls-9" d="M119.82,81.96c.7,.77,1.06,1.79,1,2.83v5.63h-1.75v-1.26c-.35,.47-.81,.85-1.35,1.09-.53,.26-1.12,.4-1.71,.42-.89,.03-1.76-.25-2.46-.81-.65-.52-1.03-1.32-1-2.16,0-.58,.16-1.14,.49-1.62,.34-.48,.81-.86,1.35-1.09,.59-.26,1.23-.4,1.88-.39,.96,.01,1.91,.18,2.81,.5v-.28c.02-.62-.18-1.23-.56-1.72-.47-.5-1.14-.76-1.83-.7-.92,.05-1.81,.32-2.61,.78l-.67-1.32c1.09-.58,2.3-.9,3.53-.93,1.06-.08,2.11,.3,2.88,1.03Zm-1.73,6.81c.5-.26,.86-.72,1-1.27v-1.24c-.82-.24-1.68-.37-2.54-.36-.58-.02-1.15,.15-1.62,.49-.41,.27-.66,.73-.66,1.22-.01,.47,.2,.91,.58,1.18,.44,.31,.96,.47,1.5,.44,.61,0,1.21-.15,1.74-.46Z"/>
        <path class="cls-9" d="M130.12,81.35c.53,.31,.96,.77,1.23,1.32,.3,.58,.45,1.23,.44,1.88v5.92h-1.73v-5.67c.02-.62-.19-1.23-.59-1.7-.4-.43-.96-.67-1.55-.65-.45,0-.89,.1-1.3,.29-.37,.19-.69,.46-.93,.8-.22,.32-.34,.71-.34,1.1v5.78h-1.79v-9.31h1.79v1.37c.29-.49,.71-.88,1.21-1.14,1.11-.59,2.45-.59,3.56,0h0Z"/>
        <path class="cls-9" d="M143.22,77.84v12.58h-1.78v-1.58c-.36,.55-.85,1-1.43,1.32-.58,.32-1.23,.49-1.89,.48-.78,0-1.54-.21-2.19-.63-.66-.42-1.19-1.02-1.53-1.73-.38-.79-.57-1.65-.56-2.52-.01-.87,.18-1.73,.56-2.51,.34-.71,.87-1.31,1.53-1.73,.65-.42,1.41-.63,2.19-.62,.66,0,1.31,.16,1.89,.48,.58,.3,1.07,.75,1.43,1.29v-4.83h1.78Zm-3.21,10.83c.43-.3,.78-.71,1-1.19,.25-.54,.38-1.13,.37-1.72,0-.59-.12-1.18-.37-1.71-.22-.48-.56-.89-1-1.18-.44-.28-.96-.43-1.48-.42-.53,0-1.05,.14-1.5,.42-.44,.29-.78,.7-1,1.18-.26,.53-.38,1.12-.37,1.71-.01,.59,.12,1.18,.37,1.72,.22,.48,.57,.89,1,1.19,.45,.28,.97,.43,1.5,.42,.52,0,1.04-.14,1.48-.42Z"/>
        <path class="cls-9" d="M150.35,88.67l1.08-1.35c1.07,1.09,2.54,1.72,4.07,1.73,.68,.04,1.35-.16,1.9-.55,.43-.31,.69-.81,.69-1.34,.02-.52-.25-1.01-.71-1.27-.75-.4-1.56-.67-2.39-.82-.79-.17-1.55-.42-2.29-.74-.55-.24-1.03-.62-1.4-1.1-.35-.51-.52-1.12-.5-1.74-.01-.66,.18-1.31,.56-1.86,.38-.56,.91-1.01,1.53-1.29,.69-.32,1.45-.48,2.21-.47,.84-.01,1.68,.14,2.46,.45,.74,.31,1.41,.75,2,1.29l-1,1.37c-.5-.46-1.08-.84-1.71-1.11-.58-.26-1.21-.4-1.84-.4-.42,0-.83,.08-1.21,.25-.34,.15-.63,.39-.84,.69-.2,.26-.31,.58-.31,.91-.01,.34,.11,.67,.34,.92,.28,.27,.63,.48,1,.6,.58,.21,1.18,.39,1.78,.52,1.12,.21,2.18,.65,3.12,1.28,.7,.57,1.07,1.44,1,2.34,.01,.67-.17,1.32-.52,1.89-.38,.57-.91,1.02-1.54,1.3-.77,.34-1.6,.5-2.44,.48-1.88,.04-3.69-.67-5.04-1.98Z"/>
        <path class="cls-9" d="M166.94,89.97c-.26,.21-.56,.38-.87,.49-.32,.12-.66,.18-1,.18-.66,.02-1.3-.24-1.76-.71-.47-.49-.71-1.15-.69-1.83v-5.43h-1.38v-1.56h1.38v-2.55h1.75v2.55h2.2v1.56h-2.2v5.3c-.01,.29,.09,.58,.29,.8,.17,.2,.42,.32,.68,.32,.18,0,.37-.04,.54-.1,.15-.06,.28-.14,.4-.24l.66,1.22Z"/>
        <path class="cls-9" d="M175.26,81.96c.7,.77,1.06,1.79,1,2.83v5.63h-1.75v-1.26c-.35,.47-.81,.85-1.35,1.09-.55,.26-1.15,.39-1.75,.39-.89,.03-1.76-.25-2.46-.81-.63-.53-.98-1.33-.94-2.16,0-.58,.16-1.14,.49-1.62,.34-.48,.81-.86,1.35-1.09,.59-.26,1.23-.4,1.88-.39,.96,.01,1.91,.18,2.81,.5v-.28c.03-.62-.16-1.23-.53-1.72-.47-.5-1.14-.76-1.83-.7-.92,.05-1.81,.32-2.61,.78l-.67-1.32c1.09-.58,2.3-.9,3.53-.93,1.05-.06,2.08,.33,2.83,1.06Zm-1.73,6.81c.5-.26,.86-.72,1-1.27v-1.24c-.82-.24-1.68-.37-2.54-.36-.58-.02-1.15,.15-1.62,.49-.41,.27-.66,.73-.66,1.22-.01,.47,.2,.91,.58,1.18,.44,.31,.96,.47,1.5,.44,.61,0,1.21-.15,1.74-.46Z"/>
        <path class="cls-9" d="M182.13,81.45c.64-.38,1.37-.57,2.11-.55v1.55c-.62-.01-1.23,.11-1.8,.37-.5,.23-.93,.6-1.22,1.07-.29,.48-.44,1.02-.43,1.58v5h-1.78v-9.36h1.79v1.82c.28-.62,.74-1.14,1.33-1.48Z"/>
        <path class="cls-9" d="M191.01,89.97c-.27,.21-.56,.37-.88,.49-.32,.12-.66,.18-1,.18-.66,.02-1.3-.24-1.76-.71-.46-.49-.71-1.15-.68-1.83v-5.43h-1.39v-1.56h1.39v-2.55h1.74v2.55h2.2v1.56h-2.2v5.3c-.01,.29,.09,.58,.29,.8,.17,.2,.42,.32,.68,.32,.18,0,.37-.04,.54-.1,.15-.06,.28-.14,.4-.24l.67,1.22Z"/>
      </g>
      <path class="cls-9" d="M208.69,306.67h1.81v12.37h-1.81v-12.37Z"/>
      <path class="cls-9" d="M218.5,318.56c-.27,.2-.56,.37-.88,.48-.32,.12-.66,.18-1,.18-.66,.03-1.3-.23-1.76-.71-.46-.49-.71-1.15-.68-1.82v-5.48h-1.39v-1.54h1.39v-2.55h1.74v2.55h2.19v1.51h-2.2v5.35c0,.29,.1,.58,.29,.8,.17,.2,.42,.32,.68,.32,.18,0,.37-.03,.54-.1,.15-.06,.28-.14,.4-.25l.68,1.26Z"/>
      <path class="cls-9" d="M226.01,317.44c.46-.16,.87-.41,1.22-.75l1,1.09c-.46,.48-1.04,.84-1.67,1.05-.67,.25-1.38,.38-2.09,.39-.84,0-1.66-.21-2.39-.63-.73-.41-1.34-1.02-1.76-1.75-.44-.76-.67-1.63-.66-2.51-.01-.87,.21-1.72,.63-2.48,.41-.72,.99-1.31,1.7-1.73,.71-.42,1.52-.64,2.35-.63,.85-.02,1.7,.21,2.42,.66,.69,.46,1.23,1.12,1.55,1.89,.37,.91,.55,1.89,.53,2.88h-7.43c.08,.78,.44,1.51,1,2.05,.54,.51,1.26,.79,2,.78,.55,0,1.09-.1,1.6-.31Zm-3.53-5.77c-.55,.5-.91,1.19-1,1.93h5.63c-.06-.71-.36-1.39-.85-1.91-.5-.5-1.18-.77-1.88-.74-.7,0-1.38,.25-1.9,.72Z"/>
      <path class="cls-9" d="M234.11,310.04c.64-.38,1.38-.57,2.12-.55v1.54c-.62,0-1.24,.12-1.8,.38-.5,.23-.93,.6-1.22,1.07-.29,.47-.45,1.02-.44,1.58v4.95h-1.78v-9.34h1.78v1.82c.29-.61,.76-1.11,1.34-1.45Z"/>
      <path class="cls-9" d="M244.67,310.55c.69,.77,1.05,1.78,1,2.82v5.64h-1.74v-1.26c-.35,.47-.81,.85-1.35,1.09-.55,.25-1.15,.38-1.75,.38-.89,.04-1.77-.25-2.46-.81-.65-.52-1.02-1.32-1-2.16,0-.58,.17-1.14,.5-1.61,.34-.48,.81-.86,1.35-1.09,.59-.26,1.23-.4,1.88-.39,.96,.01,1.91,.18,2.81,.5v-.29c.02-.62-.18-1.22-.56-1.71-.47-.51-1.15-.77-1.84-.7-.92,.05-1.81,.32-2.61,.78l-.66-1.32c1.09-.58,2.3-.9,3.53-.93,1.07-.07,2.13,.31,2.9,1.06Zm-1.73,6.81c.49-.27,.85-.73,1-1.27v-1.24c-.82-.24-1.68-.37-2.54-.36-.58-.02-1.15,.15-1.62,.49-.41,.27-.67,.73-.67,1.22-.01,.47,.21,.91,.59,1.18,.44,.31,.97,.46,1.5,.44,.61,0,1.21-.15,1.74-.46Z"/>
      <path class="cls-9" d="M253.11,318.56c-.27,.2-.56,.37-.88,.48-.32,.12-.66,.18-1,.18-.66,.03-1.3-.23-1.76-.71-.46-.49-.71-1.15-.68-1.82v-5.48h-1.39v-1.54h1.39v-2.55h1.74v2.55h2.2v1.51h-2.2v5.35c0,.29,.1,.58,.29,.8,.17,.2,.42,.32,.68,.32,.18,0,.37-.04,.54-.1,.15-.06,.28-.14,.4-.25l.67,1.26Z"/>
      <path class="cls-9" d="M260.57,317.44c.46-.16,.87-.41,1.22-.75l1,1.09c-.46,.48-1.04,.84-1.67,1.05-.67,.25-1.38,.38-2.09,.39-.84,0-1.66-.21-2.39-.63-.73-.41-1.34-1.02-1.76-1.75-.44-.76-.67-1.63-.66-2.51-.01-.87,.21-1.72,.63-2.48,.41-.72,.99-1.31,1.7-1.73,.71-.42,1.52-.64,2.35-.63,.85-.02,1.7,.21,2.42,.66,.69,.46,1.23,1.12,1.55,1.89,.37,.91,.55,1.89,.53,2.88h-7.39c.08,.78,.43,1.51,1,2.05,.54,.51,1.26,.79,2,.78,.54,0,1.07-.11,1.56-.31Zm-3.53-5.77c-.55,.51-.9,1.19-1,1.93h5.69c-.06-.71-.36-1.39-.85-1.91-.5-.5-1.18-.77-1.88-.74-.72-.02-1.42,.24-1.96,.72Z"/>
      <g>
        <path class="cls-8" d="M313.51,89.12h4.27c1.22-.02,2.43,.25,3.53,.79,.99,.49,1.83,1.25,2.42,2.19,1.76,2.81,.92,6.51-1.89,8.27-.17,.11-.35,.21-.53,.3-1.1,.54-2.31,.81-3.53,.79h-4.27v-12.34Zm4.38,10.71c.87,.01,1.73-.19,2.51-.58,.71-.36,1.3-.91,1.71-1.58,.42-.71,.63-1.52,.62-2.35,.01-.82-.2-1.63-.62-2.34-.42-.68-1.02-1.24-1.73-1.6-.78-.4-1.64-.6-2.51-.58h-2.56v9.06l2.58-.03Z"/>
        <path class="cls-8" d="M329.95,90.81v3.53h6.55v1.69h-6.55v3.76h7.25v1.69h-9.09v-12.36h9.09v1.69h-7.25Z"/>
        <path class="cls-8" d="M352.03,89.12l-5.33,12.36h-2l-5.33-12.36h2l4.32,10,4.31-10h2.03Z"/>
      </g>
      <g>
        <path class="cls-9" d="M274.69,388.49h-4.07v-1.69h9.94v1.69h-4.05v10.68h-1.82v-10.68Z"/>
        <path class="cls-9" d="M288.02,397.65c.45-.16,.87-.42,1.21-.76l1.05,1.1c-.47,.46-1.04,.8-1.67,1-.67,.25-1.38,.38-2.1,.39-.83,0-1.66-.21-2.38-.63-.74-.41-1.34-1.02-1.76-1.75-.86-1.55-.86-3.45,0-5,.4-.72,.99-1.32,1.7-1.74,.71-.42,1.52-.64,2.35-.63,.85-.02,1.7,.21,2.42,.67,.69,.46,1.23,1.12,1.55,1.89,.37,.91,.55,1.89,.53,2.88h-7.47c.09,.76,.44,1.47,1,2,.54,.52,1.26,.8,2,.79,.53,.03,1.06-.04,1.57-.21Zm-3.53-5.76c-.55,.5-.91,1.19-1,1.93h5.69c-.07-.71-.37-1.38-.85-1.91-.5-.5-1.18-.77-1.89-.74-.71-.03-1.41,.21-1.95,.67v.05Z"/>
        <path class="cls-9" d="M293.95,399.02c-.68-.22-1.31-.56-1.87-1l.81-1.23c.48,.37,1.01,.66,1.58,.87,.5,.19,1.04,.29,1.58,.3,.47,.03,.93-.09,1.33-.34,.31-.2,.5-.55,.49-.92,0-.37-.2-.71-.52-.89-.52-.27-1.07-.47-1.64-.6-.87-.21-1.7-.57-2.45-1.06-.5-.4-.78-1.02-.75-1.66-.03-.79,.32-1.55,.94-2.05,.7-.54,1.56-.82,2.44-.78,.6,0,1.21,.1,1.78,.29,.59,.19,1.15,.45,1.66,.79l-.74,1.26c-.8-.55-1.73-.86-2.7-.9-.43-.02-.85,.1-1.21,.32-.3,.18-.49,.52-.48,.87-.01,.22,.07,.43,.22,.58,.19,.17,.4,.3,.64,.39,.29,.11,.74,.26,1.35,.45,.56,.16,1.11,.36,1.65,.59,.42,.18,.79,.46,1.07,.82,.3,.4,.45,.9,.43,1.4,.03,.82-.35,1.6-1,2.1-.73,.54-1.63,.82-2.54,.78-.71-.01-1.41-.14-2.07-.38Z"/>
        <path class="cls-9" d="M306.44,398.72c-.26,.21-.56,.37-.87,.48-.32,.12-.66,.18-1,.18-.66,.03-1.31-.23-1.77-.71-.46-.5-.71-1.15-.68-1.83v-5.47h-1.39v-1.51h1.39v-2.56h1.75v2.56h2.19v1.51h-2.19v5.35c-.01,.29,.09,.58,.28,.8,.17,.2,.43,.31,.69,.31,.18,0,.37-.03,.54-.09,.15-.05,.28-.14,.39-.25l.67,1.23Z"/>
        <path class="cls-9" d="M319.72,390.71c.7,.77,1.06,1.78,1,2.82v5.64h-1.75v-1.26c-.34,.48-.81,.85-1.35,1.08-.54,.26-1.14,.39-1.74,.39-.89,.03-1.77-.25-2.47-.81-.65-.52-1.03-1.32-1-2.16,0-.58,.17-1.14,.5-1.61,.34-.48,.81-.86,1.35-1.1,.59-.26,1.23-.39,1.88-.38,.95,0,1.9,.18,2.8,.5v-.29c.02-.62-.17-1.23-.55-1.72-.48-.5-1.15-.75-1.84-.69-.92,.05-1.81,.32-2.61,.77l-.67-1.31c1.09-.58,2.3-.9,3.53-.94,1.08-.08,2.15,.31,2.92,1.07Zm-1.72,6.81c.49-.27,.85-.73,1-1.27v-1.24c-.82-.24-1.67-.37-2.53-.36-.58-.02-1.15,.15-1.62,.48-.42,.27-.67,.73-.67,1.23,0,.47,.21,.91,.59,1.18,.44,.31,.97,.46,1.5,.44,.61,0,1.21-.15,1.73-.46Z"/>
        <path class="cls-9" d="M330.02,390.09c.52,.3,.95,.74,1.23,1.27,.3,.58,.45,1.23,.44,1.88v5.93h-1.74v-5.62c.03-.62-.19-1.23-.6-1.7-.39-.44-.96-.68-1.55-.66-.45,0-.89,.1-1.29,.3-.38,.18-.7,.46-.94,.8-.22,.32-.34,.71-.34,1.1v5.78h-1.78v-9.31h1.78v1.37c.3-.49,.72-.88,1.22-1.15,1.11-.59,2.44-.59,3.55,0h.02Z"/>
        <path class="cls-9" d="M343.14,386.58v12.59h-1.78v-1.59c-.35,.55-.83,1.01-1.4,1.33-.58,.31-1.23,.48-1.89,.47-.78,.01-1.54-.2-2.2-.62-.66-.43-1.19-1.03-1.53-1.74-.74-1.59-.74-3.41,0-5,.34-.71,.87-1.3,1.53-1.73,.66-.42,1.42-.63,2.2-.62,.66,0,1.31,.16,1.89,.48,.56,.32,1.04,.78,1.4,1.32v-4.86l1.78-.03Zm-3.19,10.83c.44-.3,.78-.71,1-1.19,.49-1.09,.49-2.34,0-3.43-.22-.47-.57-.88-1-1.17-.92-.58-2.08-.58-3,0-.44,.29-.78,.69-1,1.17-.49,1.09-.49,2.34,0,3.43,.21,.48,.56,.9,1,1.19,.92,.57,2.08,.57,3,0Z"/>
        <path class="cls-9" d="M351.35,386.8h5.87c.63-.01,1.25,.13,1.82,.4,.5,.25,.93,.62,1.24,1.09,.3,.47,.46,1.03,.45,1.59,.01,.56-.14,1.12-.44,1.59-.34,.5-.8,.9-1.34,1.18,.66,.31,1.23,.78,1.67,1.36,.38,.53,.59,1.17,.58,1.83,.01,.61-.16,1.22-.48,1.74-.33,.51-.8,.93-1.35,1.19-.62,.3-1.31,.46-2,.44h-6.02v-12.41Zm5.4,5.15c.55,.02,1.1-.16,1.53-.5,.7-.59,.79-1.64,.2-2.34-.06-.07-.13-.14-.2-.2-.43-.35-.97-.53-1.53-.51h-3.58v3.55h3.58Zm.29,5.61c.61,.02,1.21-.18,1.68-.56,.81-.75,.86-2.01,.11-2.83-.04-.04-.07-.08-.11-.11-.47-.39-1.07-.59-1.68-.56h-3.87v4.06h3.87Z"/>
        <path class="cls-9" d="M371.69,389.86v9.31h-1.74v-1.34c-.3,.48-.73,.87-1.23,1.13-.54,.28-1.13,.43-1.74,.42-.63,.01-1.25-.14-1.8-.45-.52-.3-.95-.74-1.23-1.28-.3-.58-.45-1.23-.44-1.88v-5.92h1.75v5.62c-.02,.62,.19,1.23,.59,1.7,.4,.43,.96,.67,1.55,.65,.45,0,.89-.09,1.29-.29,.37-.19,.69-.46,.93-.8,.21-.32,.33-.7,.33-1.08v-5.78h1.74Z"/>
        <path class="cls-9" d="M374.78,387.99c-.2-.2-.32-.47-.32-.76,0-.28,.11-.55,.32-.74,.4-.42,1.07-.43,1.48-.03,0,0,.02,.02,.03,.03,.2,.19,.31,.46,.31,.74,0,.28-.11,.56-.31,.76-.4,.42-1.07,.43-1.48,.03,0,0-.02-.02-.03-.03Zm-.14,1.87h1.78v9.31h-1.78v-9.31Z"/>
        <path class="cls-9" d="M379.41,386.58h1.78v12.59h-1.78v-12.59Z"/>
        <path class="cls-9" d="M392.84,386.58v12.59h-1.78v-1.59c-.36,.55-.84,1.01-1.41,1.33-.58,.32-1.23,.48-1.89,.47-.77,0-1.54-.21-2.19-.62-.66-.43-1.19-1.03-1.53-1.74-.74-1.59-.74-3.41,0-5,.34-.71,.87-1.3,1.53-1.73,.65-.41,1.42-.63,2.19-.62,.66,0,1.31,.16,1.89,.48,.57,.32,1.05,.77,1.41,1.32v-4.86l1.78-.03Zm-3.18,10.83c.44-.3,.78-.71,1-1.19,.49-1.09,.49-2.34,0-3.43-.22-.47-.57-.88-1-1.17-.44-.29-.95-.44-1.48-.43-.53,0-1.05,.14-1.5,.43-.44,.29-.78,.69-1,1.17-.49,1.09-.49,2.34,0,3.43,.21,.48,.56,.9,1,1.19,.45,.28,.97,.43,1.5,.42,.52,0,1.04-.14,1.48-.42h0Z"/>
      </g>
      <g>
        <path class="cls-9" d="M436.53,323.56l1.08-1.35c1.07,1.1,2.54,1.72,4.07,1.73,.68,.04,1.35-.15,1.9-.55,.43-.31,.69-.81,.69-1.34,.01-.52-.26-1.01-.71-1.27-.75-.39-1.56-.66-2.39-.82-.79-.17-1.55-.41-2.29-.73-.55-.25-1.03-.62-1.4-1.1-.35-.52-.52-1.13-.5-1.75,0-.66,.19-1.31,.56-1.85,.38-.57,.92-1.02,1.54-1.3,.69-.32,1.44-.48,2.2-.47,.84-.01,1.68,.14,2.46,.45,.74,.32,1.41,.76,2,1.3l-1,1.37c-.51-.46-1.08-.84-1.71-1.12-.58-.26-1.21-.39-1.84-.39-.42,0-.83,.08-1.21,.25-.34,.15-.63,.38-.84,.68-.2,.27-.31,.59-.31,.92,0,.34,.11,.67,.34,.92,.28,.27,.63,.48,1,.6,.58,.21,1.17,.38,1.77,.51,1.11,.21,2.18,.65,3.12,1.28,.71,.56,1.11,1.43,1.05,2.34,.01,.67-.17,1.32-.52,1.89-.38,.58-.91,1.03-1.54,1.31-.77,.33-1.6,.49-2.44,.47-1.89,.05-3.72-.66-5.08-1.98Z"/>
        <path class="cls-9" d="M450.18,324.9c-.74-.44-1.36-1.06-1.8-1.8-.91-1.48-.91-3.35,0-4.83,.44-.74,1.07-1.35,1.81-1.78,.74-.44,1.57-.67,2.43-.67,.64,0,1.27,.13,1.86,.38,.59,.26,1.12,.62,1.58,1.06l-1.21,1.12c-.28-.31-.62-.56-1-.74-.38-.18-.79-.27-1.21-.27-.55,0-1.09,.16-1.55,.45-.48,.3-.87,.72-1.14,1.22-.28,.5-.42,1.07-.42,1.64,0,.58,.14,1.16,.42,1.67,.27,.5,.66,.91,1.14,1.21,.46,.29,1,.45,1.55,.45,.43,0,.85-.09,1.24-.27,.38-.19,.72-.45,1-.77l1.21,1.1c-.46,.46-1,.83-1.59,1.1-1.41,.6-3.02,.5-4.34-.27h.02Z"/>
        <path class="cls-9" d="M464.35,316.89c.7,.77,1.06,1.78,1,2.82v5.64h-1.74v-1.26c-.35,.47-.81,.85-1.35,1.09-.55,.25-1.15,.38-1.75,.38-.89,.03-1.77-.25-2.47-.81-.65-.53-1.02-1.32-1-2.16,0-.58,.17-1.14,.5-1.61,.34-.48,.81-.86,1.35-1.1,.59-.26,1.23-.39,1.88-.38,.96,0,1.91,.18,2.81,.5v-.33c.02-.62-.18-1.23-.56-1.72-.47-.5-1.15-.76-1.84-.69-.92,.05-1.81,.32-2.61,.77l-.66-1.31c1.08-.58,2.29-.9,3.52-.94,1.09-.07,2.15,.34,2.92,1.11Zm-1.72,6.78c.49-.27,.85-.73,1-1.27v-1.24c-.82-.24-1.68-.37-2.54-.36-.58-.02-1.15,.15-1.62,.48-.42,.27-.67,.73-.67,1.23,0,.47,.21,.91,.59,1.18,.44,.31,.97,.46,1.5,.44,.61,0,1.21-.15,1.74-.46Z"/>
        <path class="cls-9" d="M474.65,316.27c.52,.3,.95,.74,1.23,1.27,.3,.58,.45,1.23,.44,1.88v5.93h-1.72v-5.62c.03-.62-.19-1.23-.6-1.7-.39-.43-.95-.68-1.54-.66-.45,0-.9,.1-1.3,.3-.38,.18-.7,.46-.94,.8-.22,.32-.34,.71-.34,1.1v5.78h-1.77v-9.31h1.78v1.37c.3-.49,.72-.88,1.22-1.15,1.11-.59,2.44-.59,3.55,0h-.01Z"/>
        <path class="cls-9" d="M479.42,327.24c.47-.46,.82-1.04,1-1.68-.31,0-.62-.12-.83-.35-.23-.22-.35-.53-.34-.85,0-.31,.12-.62,.34-.84,.22-.23,.53-.36,.85-.35,.37,0,.73,.17,.95,.47,.25,.36,.38,.8,.36,1.24,0,.45-.12,.89-.35,1.28-.34,.59-.75,1.15-1.21,1.65l-.77-.57Z"/>
        <path class="cls-9" d="M489,323.56l1.08-1.35c1.07,1.1,2.53,1.72,4.06,1.73,.68,.04,1.36-.15,1.91-.55,.43-.31,.69-.81,.69-1.34,.01-.52-.26-1.01-.72-1.27-.75-.39-1.55-.67-2.38-.82-.79-.16-1.55-.41-2.29-.73-.55-.25-1.03-.62-1.4-1.1-.35-.51-.53-1.13-.5-1.75,0-.66,.18-1.3,.55-1.85,.39-.56,.92-1.01,1.54-1.3,.69-.32,1.45-.48,2.21-.47,.84-.01,1.68,.14,2.46,.45,.73,.32,1.41,.76,2,1.3l-1,1.37c-.5-.46-1.08-.84-1.7-1.12-.58-.26-1.21-.39-1.84-.39-.42,0-.83,.08-1.21,.25-.34,.15-.63,.38-.84,.68-.2,.27-.31,.59-.31,.92-.01,.34,.11,.67,.34,.92,.28,.27,.63,.48,1,.6,.58,.2,1.18,.38,1.78,.51,1.11,.21,2.18,.65,3.12,1.28,.71,.56,1.11,1.43,1.05,2.34,.01,.67-.17,1.32-.52,1.89-.38,.58-.91,1.03-1.54,1.31-.77,.33-1.6,.49-2.44,.47-1.9,.06-3.74-.66-5.1-1.98Z"/>
        <path class="cls-9" d="M501.11,314.17c-.2-.2-.31-.48-.31-.76,0-.28,.11-.55,.31-.74,.21-.2,.48-.31,.77-.31,.28,0,.55,.11,.75,.31,.2,.19,.32,.47,.31,.75,0,.28-.11,.56-.31,.76-.19,.21-.47,.32-.75,.32-.29,0-.57-.12-.77-.33Zm-.13,1.87h1.78v9.31h-1.78v-9.31Z"/>
        <path class="cls-9" d="M514.27,316.04v8.32c.01,.75-.2,1.48-.6,2.11-.42,.63-1,1.13-1.68,1.45-.76,.36-1.6,.54-2.44,.52-.74,0-1.47-.11-2.17-.34-.62-.2-1.2-.5-1.72-.9l.71-1.33c.37,.34,.8,.6,1.28,.75,.53,.18,1.09,.27,1.65,.27,.84,.05,1.66-.19,2.34-.68,.56-.46,.88-1.16,.85-1.89v-1.35c-.36,.53-.84,.96-1.41,1.25-.58,.3-1.22,.45-1.87,.44-.77,.01-1.52-.18-2.19-.56-.64-.38-1.16-.93-1.51-1.58-.74-1.43-.74-3.14,0-4.57,.35-.65,.87-1.2,1.51-1.57,.67-.38,1.42-.57,2.19-.56,.65,0,1.3,.15,1.88,.45,.56,.29,1.04,.72,1.4,1.25v-1.48h1.78Zm-2.58,6.27c1.07-1.17,1.07-2.97,0-4.14-1.1-1.12-2.89-1.14-4.02-.05-.57,.55-.87,1.32-.85,2.11-.03,.77,.26,1.52,.8,2.07,1.15,1.06,2.92,1.06,4.07,0h0Z"/>
        <path class="cls-9" d="M523.74,316.27c.52,.3,.95,.74,1.23,1.27,.3,.58,.45,1.23,.44,1.88v5.93h-1.73v-5.62c.03-.62-.19-1.23-.59-1.7-.39-.44-.96-.68-1.55-.66-.45,0-.9,.1-1.3,.3-.37,.18-.69,.46-.93,.8-.22,.32-.34,.71-.34,1.1v5.78h-1.79v-9.31h1.79v1.37c.29-.49,.71-.88,1.21-1.15,.54-.29,1.15-.44,1.76-.44,.63-.01,1.25,.14,1.8,.45Z"/>
        <path class="cls-9" d="M528.51,327.24c.47-.47,.81-1.05,1-1.68-.31,0-.62-.12-.83-.35-.23-.22-.35-.53-.34-.85,0-.31,.12-.62,.34-.84,.22-.23,.52-.36,.84-.35,.39-.02,.77,.15,1,.47,.25,.36,.38,.8,.36,1.24,0,.45-.13,.89-.35,1.28-.35,.59-.76,1.14-1.22,1.65l-.8-.57Z"/>
        <path class="cls-9" d="M446.85,337.89c.7,.77,1.06,1.78,1,2.82v5.64h-1.74v-1.26c-.35,.48-.81,.85-1.35,1.09-.55,.25-1.14,.38-1.74,.38-.89,.03-1.77-.25-2.47-.81-.65-.52-1.03-1.32-1-2.16,0-.57,.16-1.14,.49-1.61,.34-.48,.81-.86,1.35-1.1,.59-.26,1.23-.39,1.88-.38,.96,0,1.91,.18,2.81,.5v-.33c.02-.62-.18-1.23-.56-1.72-.47-.5-1.15-.76-1.83-.69-.92,.05-1.81,.32-2.61,.77l-.67-1.31c1.09-.58,2.3-.9,3.53-.94,1.08-.06,2.14,.34,2.91,1.11Zm-1.74,6.78c.5-.26,.86-.72,1-1.27v-1.24c-.82-.24-1.68-.37-2.54-.36-.58-.02-1.14,.15-1.62,.48-.41,.28-.66,.74-.66,1.23-.01,.46,.2,.91,.58,1.18,.44,.31,.97,.46,1.51,.44,.61,0,1.21-.15,1.73-.46Z"/>
        <path class="cls-9" d="M457.11,337.27c.52,.3,.95,.74,1.23,1.27,.3,.58,.45,1.23,.44,1.88v5.93h-1.67v-5.62c.03-.62-.18-1.23-.59-1.7-.39-.44-.96-.68-1.55-.66-.45,0-.9,.1-1.3,.3-.37,.18-.69,.46-.93,.8-.22,.32-.34,.71-.34,1.1v5.78h-1.78v-9.31h1.78v1.37c.29-.49,.71-.88,1.21-1.15,.54-.29,1.15-.44,1.76-.44,.61,0,1.21,.15,1.74,.45Z"/>
        <path class="cls-9" d="M470.25,333.76v12.59h-1.78v-1.59c-.35,.55-.84,1.01-1.41,1.32-.57,.32-1.22,.49-1.88,.48-.78,.01-1.54-.2-2.2-.62-.66-.43-1.19-1.03-1.53-1.74-.74-1.59-.74-3.41,0-5,.34-.7,.87-1.3,1.53-1.72,.66-.42,1.42-.64,2.2-.63,.66,0,1.31,.16,1.88,.48,.57,.32,1.05,.77,1.41,1.32v-4.86l1.78-.03Zm-3.14,10.83c.44-.3,.78-.71,1-1.19,.49-1.09,.49-2.34,0-3.43-.22-.47-.57-.88-1-1.17-.44-.29-.95-.44-1.48-.43-.53,0-1.05,.14-1.49,.43-.44,.29-.78,.69-1,1.17-.49,1.09-.49,2.34,0,3.43,.21,.48,.56,.9,1,1.19,.45,.28,.96,.43,1.49,.42,.52,0,1.04-.14,1.48-.42Z"/>
        <path class="cls-9" d="M477.38,344.56l1.08-1.35c1.07,1.1,2.54,1.72,4.07,1.73,.68,.04,1.35-.15,1.91-.55,.43-.31,.68-.81,.68-1.34,.01-.52-.26-1.01-.71-1.27-.75-.39-1.56-.66-2.39-.82-.79-.17-1.55-.41-2.29-.73-.55-.25-1.03-.62-1.4-1.1-.35-.52-.52-1.13-.5-1.75,0-.66,.19-1.3,.56-1.85,.38-.57,.92-1.02,1.54-1.3,.69-.32,1.44-.48,2.2-.47,.84-.01,1.68,.14,2.46,.45,.74,.31,1.41,.75,2,1.3l-1,1.37c-.5-.46-1.08-.84-1.7-1.12-.58-.25-1.21-.39-1.85-.39-.41,0-.82,.08-1.2,.25-.34,.15-.63,.38-.85,.68-.2,.27-.31,.59-.31,.92,0,.34,.11,.67,.34,.92,.28,.27,.63,.48,1,.6,.58,.21,1.17,.38,1.77,.51,1.11,.21,2.18,.65,3.12,1.28,.71,.56,1.11,1.43,1.05,2.34,.01,.67-.17,1.32-.52,1.89-.38,.58-.91,1.03-1.54,1.31-.77,.33-1.6,.49-2.44,.47-1.89,.05-3.72-.66-5.08-1.98Z"/>
        <path class="cls-9" d="M493.97,345.9c-.26,.21-.56,.37-.87,.48-.32,.12-.66,.18-1,.18-.66,.02-1.3-.24-1.76-.71-.47-.49-.72-1.15-.69-1.83v-5.47h-1.38v-1.51h1.38v-2.56h1.75v2.56h2.2v1.51h-2.2v5.35c0,.29,.1,.58,.29,.8,.17,.2,.42,.31,.68,.31,.18,0,.37-.03,.54-.1,.15-.05,.29-.13,.4-.24l.66,1.23Z"/>
        <path class="cls-9" d="M497.6,345.91c-.74-.43-1.36-1.05-1.79-1.79-.88-1.5-.88-3.37,0-4.87,.44-.73,1.05-1.34,1.79-1.77,1.51-.88,3.37-.88,4.88,0,.74,.43,1.35,1.04,1.79,1.77,.89,1.5,.89,3.37,0,4.87-.43,.74-1.05,1.36-1.79,1.79-1.51,.87-3.37,.87-4.88,0Zm4-1.35c.47-.3,.86-.72,1.13-1.21,.27-.52,.4-1.1,.38-1.68,0-.58-.14-1.15-.42-1.66-.27-.49-.66-.91-1.13-1.21-.96-.58-2.16-.58-3.12,0-.47,.3-.86,.72-1.13,1.21-.28,.51-.42,1.08-.42,1.66,0,.58,.14,1.16,.42,1.67,.27,.49,.66,.91,1.13,1.21,.95,.6,2.17,.6,3.12,0h.04Z"/>
        <path class="cls-9" d="M510.29,337.37c.64-.37,1.38-.56,2.12-.55v1.55c-.62-.01-1.24,.12-1.8,.38-.51,.23-.93,.6-1.23,1.07-.29,.47-.44,1.02-.43,1.58v5h-1.78v-9.31h1.78v1.82c.28-.64,.75-1.18,1.34-1.54Z"/>
        <path class="cls-9" d="M520.11,344.78c.46-.16,.87-.42,1.22-.76l1,1.1c-.46,.48-1.03,.83-1.66,1.05-.67,.25-1.38,.38-2.1,.39-1.71,0-3.29-.91-4.15-2.38-.43-.76-.66-1.63-.65-2.51-.01-.87,.2-1.72,.63-2.48,.4-.72,.99-1.32,1.7-1.74,.71-.42,1.52-.64,2.35-.63,.85-.02,1.7,.21,2.42,.67,.69,.46,1.23,1.12,1.54,1.89,.38,.91,.56,1.89,.54,2.88h-7.44c.09,.76,.45,1.47,1,2,.54,.51,1.26,.8,2,.79,.55,.01,1.09-.08,1.6-.27Zm-3.52-5.76c-.55,.5-.91,1.19-1,1.93h5.69c-.07-.71-.37-1.39-.86-1.91-.49-.5-1.18-.77-1.88-.74-.74-.03-1.45,.23-2,.72h.05Z"/>
      </g>
      <g>
        <path class="cls-6" d="M467.95,126.53l1.07-1.35c1.07,1.09,2.54,1.71,4.07,1.73,.68,.04,1.36-.15,1.91-.55,.43-.31,.69-.81,.69-1.34,.01-.52-.26-1.01-.72-1.27-.75-.39-1.55-.67-2.38-.82-.79-.16-1.56-.41-2.3-.74-.55-.24-1.03-.61-1.39-1.09-.35-.51-.53-1.13-.5-1.75,0-.66,.18-1.3,.55-1.85,.39-.57,.92-1.01,1.54-1.3,.69-.32,1.45-.48,2.21-.47,.84-.01,1.67,.14,2.45,.45,.75,.31,1.45,.75,2.05,1.3l-1.09,1.37c-.5-.47-1.07-.85-1.7-1.12-.58-.26-1.21-.39-1.84-.4-.42,0-.83,.08-1.21,.26-.34,.15-.63,.38-.84,.68-.2,.26-.31,.59-.31,.92-.01,.34,.11,.67,.34,.92,.28,.27,.63,.48,1,.6,.58,.2,1.18,.38,1.78,.51,1.11,.21,2.18,.65,3.12,1.28,.7,.57,1.07,1.44,1,2.34,.01,.67-.17,1.32-.52,1.89-.37,.58-.91,1.03-1.54,1.3-.77,.34-1.6,.5-2.44,.48-1.86,.03-3.66-.68-5-1.98Z"/>
        <path class="cls-6" d="M482.87,117.67v3.53h6.55v1.69h-6.55v3.78h7.24v1.69h-9.09v-12.41h9.09v1.72h-7.24Z"/>
        <path class="cls-6" d="M496.03,127.67c-.97-.57-1.78-1.38-2.36-2.35-1.17-1.96-1.17-4.41,0-6.37,.58-.96,1.39-1.77,2.36-2.34,.95-.57,2.05-.87,3.16-.87,1.73,0,3.39,.7,4.58,1.95l-1.28,1.22c-.43-.46-.94-.84-1.51-1.1-1.29-.58-2.79-.49-4,.25-.69,.43-1.27,1.02-1.67,1.73-.41,.71-.62,1.52-.62,2.34,0,1.67,.87,3.21,2.29,4.09,1.21,.75,2.71,.84,4,.25,.57-.26,1.09-.64,1.51-1.1l1.28,1.23c-.6,.61-1.31,1.09-2.09,1.43-.79,.34-1.63,.51-2.49,.51-1.11,0-2.21-.3-3.16-.87Z"/>
      </g>
      <g>
        <path class="cls-7" d="M747.65,68.27c-.98-.56-1.79-1.37-2.36-2.35-1.17-1.96-1.17-4.4,0-6.36,.57-.97,1.38-1.78,2.36-2.34,.95-.57,2.05-.87,3.16-.87,1.12,0,2.23,.3,3.19,.87,.97,.56,1.78,1.36,2.35,2.32,1.16,1.96,1.16,4.4,0,6.36-.57,.97-1.38,1.78-2.35,2.35-.96,.58-2.07,.89-3.19,.88-1.11,.01-2.21-.29-3.16-.86Zm5.42-1.45c.7-.43,1.27-1.02,1.68-1.73,.41-.72,.62-1.53,.62-2.35,0-.82-.21-1.63-.62-2.34-.4-.71-.98-1.3-1.67-1.73-.68-.43-1.46-.65-2.26-.65-.8,0-1.58,.23-2.26,.65-.7,.42-1.27,1.02-1.67,1.73-.41,.71-.62,1.52-.62,2.34,0,.82,.21,1.63,.62,2.35,.4,.71,.97,1.31,1.67,1.73,.68,.43,1.46,.65,2.26,.65,.8,0,1.59-.22,2.26-.65h-.01Z"/>
        <path class="cls-7" d="M760.66,56.54h5.2c.81,0,1.6,.17,2.33,.52,.68,.33,1.26,.84,1.66,1.48,.8,1.27,.8,2.88,0,4.15-.41,.63-.98,1.12-1.66,1.44-.73,.35-1.52,.53-2.33,.52h-3.38v4.3h-1.82v-12.41Zm4.93,6.38c.78,.04,1.54-.18,2.18-.63,.94-.75,1.1-2.12,.36-3.06-.1-.13-.23-.25-.36-.36-.64-.45-1.4-.67-2.18-.63h-3.11v4.7l3.11-.02Z"/>
        <path class="cls-7" d="M772.75,67.15l1.08-1.35c1.07,1.09,2.54,1.71,4.07,1.73,.68,.04,1.35-.15,1.91-.55,.43-.31,.68-.81,.68-1.34,.02-.52-.25-1.02-.71-1.27-.75-.4-1.55-.67-2.38-.82-.79-.17-1.56-.42-2.3-.74-.55-.24-1.03-.62-1.39-1.1-.36-.51-.54-1.12-.51-1.74,0-.66,.19-1.31,.56-1.86,.39-.56,.92-1.01,1.54-1.29,.69-.33,1.45-.49,2.21-.47,.84-.01,1.67,.14,2.45,.45,.73,.31,1.41,.75,2,1.29l-1,1.37c-.5-.46-1.08-.84-1.7-1.11-.58-.26-1.21-.4-1.84-.4-.42,0-.83,.08-1.21,.25-.34,.15-.63,.39-.85,.69-.19,.26-.3,.58-.3,.91-.02,.34,.11,.67,.34,.92,.28,.27,.62,.48,1,.6,.58,.21,1.17,.39,1.77,.52,1.12,.21,2.18,.65,3.13,1.28,.7,.57,1.07,1.44,1,2.34,.01,.67-.17,1.32-.52,1.89-.38,.57-.91,1.02-1.54,1.3-.77,.34-1.6,.5-2.44,.48-1.88,.05-3.7-.67-5.05-1.98Z"/>
      </g>
      <g>
        <path class="cls-9" d="M756.55,356.6c-.69,.73-1.6,1.2-2.59,1.35l3.08,4.4h-2.09l-3-4.31h-2.36v4.31h-1.86v-12.37h5.2c.81-.01,1.61,.16,2.34,.51,.67,.32,1.24,.82,1.65,1.44,.4,.62,.61,1.34,.6,2.08,.02,.96-.32,1.89-.97,2.59Zm-7-.25h3.18c.78,.04,1.54-.18,2.18-.63,.94-.75,1.1-2.12,.36-3.06-.1-.13-.23-.25-.36-.36-.64-.45-1.4-.67-2.18-.63h-3.11l-.07,4.68Z"/>
        <path class="cls-9" d="M767.84,353.04v9.31h-1.78v-1.34c-.3,.48-.73,.87-1.23,1.13-.54,.28-1.13,.43-1.74,.42-.63,.01-1.25-.14-1.8-.45-.53-.29-.95-.74-1.23-1.27-.31-.58-.46-1.23-.45-1.88v-5.92h1.75v5.63c-.02,.62,.19,1.23,.59,1.7,.4,.43,.96,.67,1.55,.65,.45,0,.89-.09,1.29-.29,.37-.19,.69-.46,.93-.8,.22-.33,.34-.71,.34-1.1v-5.78h1.78Z"/>
        <path class="cls-9" d="M777.33,353.27c.52,.3,.95,.74,1.23,1.27,.3,.58,.45,1.23,.44,1.88v5.93h-1.73v-5.62c.03-.62-.19-1.23-.59-1.7-.39-.44-.96-.68-1.55-.66-.45,0-.9,.1-1.3,.3-.37,.18-.69,.46-.93,.8-.22,.32-.34,.71-.34,1.1v5.78h-1.83v-9.31h1.79v1.37c.29-.49,.71-.88,1.21-1.15,.54-.29,1.15-.44,1.76-.44,.64-.02,1.28,.14,1.84,.45Z"/>
      </g>
      <path class="cls-5" d="M151.78,227.52l25.5-14.57v-30.86l-25.5-14.57-25.5,14.57v30.86l25.5,14.57Zm83.33,24l46.5-26.56v-54.88l-46.5-26.56-46.5,26.56v54.88l46.5,26.56Zm97-132.67l-67,38.27v79.46l67,38.27,67-38.27v-79.46l-67-38.27Zm285.01,163.49l73.5-41.99v-88.02l-73.5-41.99-73.51,41.99v88.02l73.51,41.99Zm146.25,8.01l87.5-49.98v-104.04l-87.5-49.98-87.5,49.98v104.04l87.5,49.98ZM484.11,146.35l-46.5,26.56v54.88l46.5,26.56,46.5-26.56v-54.88l-46.5-26.56ZM88.61,228.02l26-14.85v-31.3l-26-14.85-26,14.85v31.3l26,14.85Z"/>
      <path class="cls-9" d="M73.21,368.91v1.69h-8.37v-12.36h1.82v10.67h6.55Z"/>
      <path class="cls-9" d="M80.71,369.04c.45-.17,.86-.43,1.21-.76l1,1.1c-.47,.46-1.04,.8-1.67,1-.67,.26-1.38,.4-2.1,.4-.83,0-1.66-.21-2.38-.63-.74-.42-1.34-1.02-1.76-1.76-.44-.76-.67-1.63-.66-2.51-.01-.86,.21-1.72,.63-2.47,.4-.72,.99-1.32,1.7-1.74,.71-.42,1.52-.64,2.35-.63,.86-.02,1.7,.21,2.42,.67,.69,.46,1.23,1.12,1.55,1.89,.37,.91,.55,1.89,.53,2.88h-7.42c.09,.76,.44,1.47,1,2,.54,.51,1.26,.79,2,.78,.54,.03,1.09-.05,1.6-.22Zm-3.53-5.76c-.55,.5-.91,1.18-1,1.92h5.69c-.07-.71-.37-1.38-.85-1.9-.5-.5-1.18-.77-1.89-.74-.72-.02-1.41,.24-1.95,.72Z"/>
      <path class="cls-9" d="M92.11,362.14c.7,.77,1.06,1.79,1,2.83v5.63h-1.74v-1.26c-.34,.48-.81,.85-1.35,1.09-.55,.26-1.15,.39-1.75,.39-.89,.03-1.77-.25-2.47-.81-.65-.53-1.02-1.32-1-2.16,0-.58,.17-1.14,.5-1.61,.34-.48,.81-.87,1.35-1.1,.59-.26,1.23-.4,1.88-.39,.96,.01,1.91,.19,2.81,.51v-.29c.02-.62-.18-1.23-.56-1.72-.47-.5-1.15-.76-1.84-.69-.92,.05-1.81,.32-2.61,.77l-.66-1.31c1.08-.59,2.29-.91,3.52-.94,1.08-.07,2.14,.31,2.92,1.06Zm-1.73,6.82c.49-.27,.85-.73,1-1.27v-1.24c-.82-.24-1.68-.37-2.54-.36-.58-.02-1.15,.15-1.62,.48-.42,.27-.67,.73-.67,1.23-.01,.46,.21,.9,.59,1.17,.44,.31,.96,.47,1.5,.45,.59,0,1.18-.16,1.69-.46h.05Z"/>
      <path class="cls-9" d="M98.92,361.67c.64-.38,1.38-.57,2.12-.55v1.55c-.62,0-1.24,.12-1.8,.38-.51,.23-.93,.6-1.23,1.07-.29,.47-.43,1.02-.43,1.57v4.95h-1.78v-9.3h1.78v1.82c.29-.62,.75-1.14,1.34-1.49Z"/>
      <path class="cls-9" d="M109.68,361.53c.52,.3,.95,.74,1.23,1.27,.3,.58,.46,1.23,.44,1.88v5.92h-1.73v-5.61c.03-.62-.18-1.23-.59-1.7-.39-.44-.96-.68-1.55-.66-.45,0-.89,.1-1.29,.3-.38,.18-.7,.46-.94,.8-.23,.32-.34,.71-.34,1.1v5.77h-1.8v-9.3h1.78v1.37c.29-.49,.71-.88,1.21-1.15,.54-.29,1.15-.44,1.76-.44,.64-.01,1.26,.14,1.82,.45Z"/>
      <g>
        <polygon class="cls-4" points="151.78 227.52 177.28 212.95 177.28 182.09 151.78 167.52 126.28 182.09 126.28 212.95 151.78 227.52"/>
        <polygon class="cls-4" points="235.11 251.52 281.61 224.96 281.61 170.08 235.11 143.52 188.61 170.08 188.61 224.96 235.11 251.52"/>
        <polygon class="cls-1" points="332.11 118.85 265.11 157.12 265.11 236.58 332.11 274.85 399.11 236.58 399.11 157.12 332.11 118.85"/>
        <polygon class="cls-4" points="617.11 282.35 690.61 240.36 690.61 152.34 617.11 110.35 543.6 152.34 543.6 240.36 617.11 282.35"/>
        <polygon class="cls-1" points="763.36 290.35 850.86 240.37 850.86 136.33 763.36 86.35 675.86 136.33 675.86 240.37 763.36 290.35"/>
        <polygon class="cls-4" points="484.11 146.35 437.61 172.91 437.61 227.79 484.11 254.35 530.61 227.79 530.61 172.91 484.11 146.35"/>
        <polygon class="cls-4" points="88.61 228.02 114.61 213.17 114.61 181.87 88.61 167.02 62.61 181.87 62.61 213.17 88.61 228.02"/>
      </g>
      <path class="cls-9" d="M153.78,197.84c0,1.1-.9,2-2,2s-2-.9-2-2,.9-2,2-2,2,.9,2,2Zm-2.75,0l-.15-93.57h1.5l.15,93.57h-1.5Z"/>
      <path class="cls-9" d="M233.11,197.85c0-1.1,.9-2,2-2s2,.9,2,2-.9,2-2,2-2-.9-2-2Zm2.75,0v95.51h-1.5v-95.51h1.5Z"/>
      <path class="cls-9" d="M329.73,197.84c0-1.1,.9-2,2-2s2,.9,2,2-.9,2-2,2-2-.9-2-2Zm2.75,0v175.51h-1.5V197.84h1.5Z"/>
      <path class="cls-9" d="M482.27,197.86c.09-1.1,1.06-1.92,2.16-1.82s1.92,1.06,1.82,2.16c-.09,1.03-.95,1.83-1.99,1.83-1.15-.05-2.04-1.02-2-2.17Zm2.75,0l.15,101.33h-1.5l-.15-101.34h1.5Z"/>
      <g>
        <path class="cls-9" d="M619.03,198.74c0,1.1-.9,2-2,2s-2-.89-2-2,.9-2,2-2,2,.89,2,2Zm-2.75,0V91.24h1.5v107.5h-1.5Z"/>
        <g>
          <path class="cls-9" d="M587.07,62.8h4.26c1.22-.02,2.43,.25,3.53,.79,.99,.49,1.83,1.26,2.42,2.2,.59,.95,.89,2.06,.87,3.18,.05,2.28-1.24,4.39-3.29,5.4-1.1,.54-2.31,.81-3.53,.79h-4.26v-12.35Zm4.37,10.71c.87,.02,1.73-.18,2.51-.58,.72-.36,1.32-.92,1.73-1.61,.83-1.45,.83-3.23,0-4.69-.41-.69-1.01-1.24-1.73-1.6-.78-.39-1.64-.59-2.51-.58h-2.56v9.05h2.56Z"/>
          <path class="cls-9" d="M606.14,73.59c.45-.17,.86-.42,1.21-.76l1,1.1c-.47,.46-1.04,.8-1.67,1-.67,.26-1.38,.4-2.1,.4-1.71,0-3.29-.91-4.15-2.39-.86-1.55-.86-3.44,0-5,.81-1.45,2.34-2.36,4-2.37,.86-.02,1.7,.21,2.42,.67,.69,.46,1.23,1.12,1.55,1.89,.37,.91,.55,1.89,.53,2.88h-7.44c.09,.76,.44,1.47,1,2,.54,.51,1.26,.79,2,.78,.56,.04,1.12-.03,1.65-.2Zm-3.53-5.76c-.55,.5-.91,1.18-1,1.92h5.69c-.07-.71-.37-1.38-.85-1.9-.5-.5-1.18-.77-1.89-.74-.72-.02-1.42,.24-1.95,.72h0Z"/>
          <path class="cls-9" d="M618.35,66.26c.66,.43,1.19,1.02,1.53,1.73,.74,1.58,.74,3.41,0,5-.34,.71-.87,1.31-1.53,1.74-.66,.42-1.42,.63-2.2,.62-1.34,.02-2.59-.67-3.29-1.82v4.7h-1.78v-12.39h1.78v1.58c.36-.54,.84-1,1.4-1.32,.58-.32,1.23-.49,1.89-.48,.78,0,1.55,.22,2.2,.65Zm-1.12,7.14c.44-.29,.79-.71,1-1.19,.49-1.09,.49-2.34,0-3.43-.22-.48-.57-.88-1-1.18-.92-.57-2.08-.57-3,0-.43,.3-.78,.7-1,1.18-.49,1.09-.49,2.34,0,3.43,.22,.48,.56,.89,1,1.19,.92,.57,2.08,.57,3,0Z"/>
          <path class="cls-9" d="M622.65,62.58h1.78v12.57h-1.78v-12.57Z"/>
          <path class="cls-9" d="M629.09,74.71c-.74-.43-1.36-1.04-1.79-1.78-.89-1.5-.89-3.37,0-4.87,.44-.73,1.05-1.34,1.79-1.77,1.5-.88,3.37-.88,4.87,0,.74,.43,1.36,1.04,1.8,1.77,.88,1.5,.88,3.36,0,4.87-.44,.74-1.06,1.35-1.8,1.78-1.5,.88-3.37,.88-4.87,0Zm4-1.34c.48-.3,.87-.72,1.14-1.21,.28-.51,.42-1.09,.42-1.67,0-.58-.14-1.15-.42-1.66-.27-.5-.66-.91-1.14-1.21-.96-.58-2.15-.58-3.11,0-.48,.3-.87,.71-1.14,1.21-.28,.51-.42,1.08-.42,1.66,0,.58,.14,1.16,.42,1.67,.27,.49,.66,.91,1.14,1.21,.95,.6,2.16,.6,3.11,0Z"/>
          <path class="cls-9" d="M638.1,78l.39-1.37c.35,.19,.74,.29,1.14,.29,.26,0,.52-.05,.75-.16,.23-.13,.41-.32,.52-.56l.47-1-4-9.35h1.9l3,7.33,2.83-7.33h1.88l-4.1,10.14c-.24,.7-.67,1.32-1.23,1.8-.51,.39-1.12,.59-1.76,.59-.62,.02-1.23-.11-1.79-.38Z"/>
        </g>
      </g>
      <path class="cls-9" d="M761.36,199.85c0-1.1,.9-2,2-2s2,.9,2,2-.9,2-2,2-2-.9-2-2Zm2.75,0v136.86h-1.5V199.85h1.5Z"/>
      <path class="cls-9" d="M86.11,197.85c0-1.1,.9-2,2-2s2,.9,2,2-.9,2-2,2-2-.9-2-2Zm2.75,0v147.45h-1.5V197.85h1.5Z"/>
    </g>
  </g>
  <path class="cls-2" d="M40.08,198.39l-21.02-.18c-6.48,0-11.73-5.1-11.73-11.38V15.14c0-6.29,5.25-11.38,11.73-11.38H876.62c6.48,0,11.73,5.1,11.73,11.38V186.83c0,6.29-5.25,11.38-11.73,11.38l-12.98-.31"/>
  <polyline class="cls-3" points="26.94 181.66 40.89 198.39 26.94 215.12"/>
</svg>